# xmcd
#
# Track frame offsets: 
#        150
#        17568
#        31324
#        47541
#        59105
#        75482
#        88470
#        101970
#        117270
#        127780
#        151040
#
# Disc length: 2257 seconds
#
# Revision: 0
# Processed by: cddbd v1.5.2PL0 Copyright (c) Steve Scherf et al.
# Submitted via: ExactAudioCopy v1.3
#
DISCID=8508cf0b
DTITLE=B. J. Thomas - Raindrops Keep Fallin' On My Head
DYEAR=1970
DGENRE=Country
TTITLE0=Little Green Apples
TTITLE1=Raindrops Keep Fallin' On My Head
TTITLE2=This Guy's In Love With You
TTITLE3=If You Ever Leave Me
TTITLE4=Guess I'll Pack My Things
TTITLE5=If You Must Leave My Life
TTITLE6=The Greatest Love
TTITLE7=Do What You Gotta Do
TTITLE8=Mr. Mailman
TTITLE9=Suspicious Minds
TTITLE10=Long Ago And Tomorrow
EXTD=
EXTT0=
EXTT1=
EXTT2=
EXTT3=
EXTT4=
EXTT5=
EXTT6=
EXTT7=
EXTT8=
EXTT9=
EXTT10=
PLAYORDER=
